***************************************************************

[IMG]http://i1113.photobucket.com/albums/k502/chrisdeloon/greyshadowsig25-1-2012.png[/IMG]

***************************************************************

[IMG]http://i1113.photobucket.com/albums/k502/chrisdeloon/stieglarssonExtendedmilleniumtrilogyposter.png[/IMG]

***************************************************************

FILM TITLE: The girl Who kicked The Hornets nest 2009 (Full Original TV Version) [Part 6 of 6]

ORIGINAL TITLE: Luftslottet Som Sprangdes

***************************************************************

[IMG]http://i1113.photobucket.com/albums/k502/chrisdeloon/stieglarssonepisodelist.png[/IMG]

***************************************************************

Genre: Crime | Drama | Mystery   

Rated R for disturbing violent content including rape, grisly images, 
sexual material, nudity and language

Release: Scandinavia in 2009.

Director: Niels Arden Oplev

Writer: Nikolaj Arcel (screenplay), Rasmus Heisterberg (screenplay), Stieg Larsson (novel)

Stars: Michael Nyqvist, Noomi Rapace and Ewa Fröling

Country: Sweden | Denmark | Germany | Norway

Language: Swedish | English

Plot:
A journalist is aided in his search for a woman who has been missing -- or dead
-- for forty years by a young female hacker.

IMDB Rating: 8.1/10 from 445 users
 
http://www.imdb.com/title/tt1634549/ 

****************************************************************

[IMG]http://i1113.photobucket.com/albums/k502/chrisdeloon/stieglarssonpart6xvid720pvdub.png[/IMG]
[IMG]http://i1113.photobucket.com/albums/k502/chrisdeloon/stiegpart6xvid1.png[/IMG]
[IMG]http://i1113.photobucket.com/albums/k502/chrisdeloon/stiegpart6xvid2.png[/IMG]
[IMG]http://i1113.photobucket.com/albums/k502/chrisdeloon/stiegpart6xvid3.png[/IMG]
[IMG]http://i1113.photobucket.com/albums/k502/chrisdeloon/stiegpart6xvid4.png[/IMG]

****************************************************************

General
Complete name                    : Stieg Larsson Millennium Trilogy 2009 (Full Original TV Version) [Part 6 of 6] 720p BDRip XviD swe-ac3 eng-hardsub (avi) [GREYSHADOW]
Format                           : AVI
Format/Info                      : Audio Video Interleave
Format profile                   : OpenDML
File size                        : 3.02 GiB
Duration                         : 1h 33mn
Overall bit rate                 : 4 636 Kbps
Writing library                  : VirtualDub build 32842/release

Video
ID                               : 0
Format                           : MPEG-4 Visual
Format profile                   : Simple@L5
Format settings, BVOP            : No
Format settings, QPel            : No
Format settings, GMC             : No warppoints
Format settings, Matrix          : Default (H.263)
Codec ID                         : XVID
Codec ID/Hint                    : XviD
Duration                         : 1h 33mn
Bit rate                         : 3 986 Kbps
Width                            : 1 280 pixels
Height                           : 720 pixels
Display aspect ratio             : 16:9
Frame rate                       : 23.976 fps
Color space                      : YUV
Chroma subsampling               : 4:2:0
Bit depth                        : 8 bits
Scan type                        : Progressive
Compression mode                 : Lossy
Bits/(Pixel*Frame)               : 0.180
Stream size                      : 2.60 GiB (86%)
Writing library                  : XviD 64

Audio
ID                               : 1
Format                           : AC-3
Format/Info                      : Audio Coding 3
Mode extension                   : CM (complete main)
Codec ID                         : 2000
Duration                         : 1h 33mn
Bit rate mode                    : Constant
Bit rate                         : 640 Kbps
Channel(s)                       : 6 channels
Channel positions                : Front: L C R, Side: L R, LFE
Sampling rate                    : 48.0 KHz
Bit depth                        : 16 bits
Compression mode                 : Lossy
Stream size                      : 427 MiB (14%)
Alignment                        : Aligned on interleaves
Interleave, duration             : 42 ms (1.00 video frame)
Interleave, preload duration     : 512 ms

****************************************************************

Video Source: Video Source: The Girl with the Dragon Tattoo (Millennium Trilogy 1 of 3) - Man Som Hatar Kvinnor 2009 EXTENDED 1080p GBP Blu-ray AVC DTS-HD MA 5.1

Thanks: chdbits.org

****************************************************************

I provide a small sample, so please download this to check your 
compatibility first if you are unsure.

****************************************************************

Hash: A63DE1461F4D69F5F857D95DE3C7AB44E8AB7E90

Trackers:
.udp://tracker.1337x.org:80/announce
.udp://tracker.openbittorrent.com:80/announce


****************************************************************